<?xml version="1.0" encoding="UTF-8"?>
<svg width="317px" height="83px" viewBox="0 0 317 83" version="1.1" xmlns="http://www.w3.org/2000/svg" xmlns:xlink="http://www.w3.org/1999/xlink">
    <!-- Generator: Sketch 52.6 (67491) - http://www.bohemiancoding.com/sketch -->
    <title>illustrations/info/103-eyfs</title>
    <desc>Created with Sketch.</desc>
    <defs>
        <path d="M0.00491048593,15.1623913 C0.00491048593,23.238913 6.68179028,29.7886957 14.9186701,29.7886957 C23.1555499,29.7886957 29.8324297,23.238913 29.8324297,15.1623913 C29.8324297,7.08326087 23.1555499,0.534782609 14.9186701,0.534782609 C6.68179028,0.534782609 0.00491048593,7.08326087 0.00491048593,15.1623913" id="path-1"></path>
        <path d="M0.00491048593,15.1623913 C0.00491048593,23.238913 6.68179028,29.7886957 14.9186701,29.7886957 C23.1555499,29.7886957 29.8324297,23.238913 29.8324297,15.1623913 C29.8324297,7.08326087 23.1555499,0.534782609 14.9186701,0.534782609 C6.68179028,0.534782609 0.00491048593,7.08326087 0.00491048593,15.1623913" id="path-3"></path>
        <path d="M0.00491048593,15.1623913 C0.00491048593,23.238913 6.68179028,29.7886957 14.9186701,29.7886957 C23.1555499,29.7886957 29.8324297,23.238913 29.8324297,15.1623913 C29.8324297,7.08326087 23.1555499,0.534782609 14.9186701,0.534782609 C6.68179028,0.534782609 0.00491048593,7.08326087 0.00491048593,15.1623913" id="path-5"></path>
        <polygon id="path-7" points="0 0 19.1851852 0 19.1851852 26.037037 0 26.037037"></polygon>
        <polygon id="path-9" points="0 1.00199567 24.1844001 1.00199567 24.1844001 23.8827505 0 23.8827505"></polygon>
        <polygon id="path-11" points="0.881442497 1.08873877 18.006274 1.08873877 18.006274 16.3703704 0.881442497 16.3703704"></polygon>
        <polygon id="path-13" points="0 0.937077778 11.7680444 0.937077778 11.7680444 10.3103 0 10.3103"></polygon>
        <polygon id="path-15" points="0.111588889 0.864089017 4.11644444 0.864089017 4.11644444 7.80205556 0.111588889 7.80205556"></polygon>
        <polygon id="path-17" points="0.000936866803 0.000574074074 24.0019905 0.000574074074 24.0019905 21.0013519 0.000936866803 21.0013519"></polygon>
        <polygon id="path-19" points="0.000385051533 0.495 27.6267375 0.495 27.6267375 28.1111111 0.000385051533 28.1111111"></polygon>
        <polygon id="path-21" points="0.000462962963 0.555555556 13.2087963 0.555555556 13.2087963 18.5180556 0.000462962963 18.5180556"></polygon>
    </defs>
    <g id="illustrations/info/103-eyfs" stroke="none" stroke-width="1" fill="none" fill-rule="evenodd">
        <g id="pea" transform="translate(109.000000, 9.000000)">
            <g id="Group-7">
                <path d="M50.7084319,63.0206173 C50.9034638,62.5311276 46.5618255,60.2435255 31.3560383,59.7195459 C16.1509213,59.1955663 10.3596128,60.3270969 10.7711234,61.7743418 C11.1819638,63.2209235 17.2829106,64.3252602 31.7011979,64.8492398 C50.5120596,65.5324031 50.4336447,63.7117398 50.7084319,63.0206173" id="Fill-1" fill="#D9EDBF"></path>
                <path d="M62.8530894,30.6955204 C63.3128553,24.7500102 57.1603021,-0.508459184 33.2967064,0.457255102 C9.43311064,1.42230612 -0.0684957447,17.6988367 0.132568085,34.7858776 C0.334302128,51.8735816 9.63216383,62.1634796 32.2525149,61.5705204 C61.7646638,60.7964898 62.2043234,39.0831735 62.8530894,30.6955204" id="Fill-3" fill="#D0E556"></path>
                <path d="M35.3564043,40.4112959 C33.8645106,39.5052755 25.3662128,40.5757857 25.9425957,42.8972143 C28.6321596,53.7296633 28.9766489,53.2043571 31.5026809,53.2043571 C34.0300532,53.2043571 36.7109043,41.2344082 35.3564043,40.4112959" id="Fill-5" fill="#FA7234"></path>
            </g>
            <g id="Group-17" transform="translate(41.000000, 13.000000)">
                <g id="Group-10">
                    <mask id="mask-2" fill="white">
                        <use xlink:href="#path-1"></use>
                    </mask>
                    <g id="Clip-9"></g>
                    <path d="M24.7456061,16.2235435 C25.2722558,9.47093478 18.2223325,-19.2149348 -9.12554476,-18.1186304 C-36.473422,-17.0223261 -47.3628338,1.4628913 -47.1320921,20.8702826 C-46.9013504,40.2770217 -36.2453402,51.9639783 -10.3224757,51.2902826 C23.4988031,50.4111522 24.002844,25.7491957 24.7456061,16.2235435" id="Fill-8" fill="#D0E556" mask="url(#mask-2)"></path>
                </g>
                <g id="Group-13">
                    <mask id="mask-4" fill="white">
                        <use xlink:href="#path-3"></use>
                    </mask>
                    <g id="Clip-12"></g>
                    <path d="M13.9432379,21.1218261 C16.0245678,18.5124783 16.4587877,11.622913 10.2347468,9.98791304 C4.01070588,8.35291304 2.18206138,17.2244348 4.19822506,20.0235652 C6.15055243,22.7346522 11.5733146,24.0924783 13.9432379,21.1218261" id="Fill-11" fill="#263416" mask="url(#mask-4)"></path>
                </g>
                <g id="Group-16">
                    <mask id="mask-6" fill="white">
                        <use xlink:href="#path-5"></use>
                    </mask>
                    <g id="Clip-15"></g>
                    <path d="M7.93424552,14.781 C7.8757289,14.1053478 7.89368286,13.4225217 7.98810742,12.7507826 C7.86375959,12.831 7.75803069,12.9373043 7.67624041,13.0586087 C6.9813555,13.7251304 6.41813299,14.5227391 6.03511509,15.3986087 C5.8702046,15.7755652 5.73588235,16.179913 5.7697954,16.5881739 C5.80370844,16.9964348 6.03910486,17.4112174 6.42943734,17.5586087 C7.03388747,17.7855652 7.70616368,17.2723043 7.9069821,16.6696957 C8.10913043,16.0664348 7.98943734,15.4129565 7.93424552,14.781" id="Fill-14" fill="#FFFFFF" mask="url(#mask-6)"></path>
                </g>
            </g>
            <g id="Group-24" transform="translate(13.000000, 5.000000)">
                <path d="M0.209955446,22.4500303 C0.80300495,21.4430528 1.8524505,20.766873 2.96624257,20.412873 C4.08003465,20.059536 5.26414356,19.9978843 6.43299505,19.9872775 C7.62440099,19.9773337 8.8854604,20.0376596 9.8825,20.6899742 C10.8788762,21.3416258 11.4487079,22.7867944 10.7714109,23.7659292 C8.36803465,23.2515022 5.86117327,23.2210079 3.44519307,23.6770978 C2.75860891,23.8063674 2.04482673,23.9740865 1.37084653,23.7891315 C0.696866337,23.6035135 0.1005,22.9134124 0.298846535,22.2431989" id="Fill-18" fill="#263416"></path>
                <path d="M36.9872505,35.9596382 C29.4905475,32.597964 26.1398842,23.799009 29.5044782,16.3073348 C32.8684089,8.8163236 41.6726069,5.46790787 49.1693099,8.82958202 C56.6660129,12.1912562 60.0166762,20.9902112 56.6527455,28.4818854 C53.2881515,35.9735596 44.4839535,39.3213124 36.9872505,35.9596382 M52.2393693,1.99022247 C52.2101812,1.97762697 52.1809931,1.96503146 52.151805,1.95243596 C49.9925475,1.02567191 47.4551713,0.458874157 45.1161416,0.24408764 C38.3584287,-0.377069663 31.515805,2.21296404 26.8662703,7.15239101 C21.4571812,12.8985933 19.4498347,21.8407393 21.9540426,29.3887618 C23.2369931,33.255582 25.513003,36.8512674 28.7150723,39.3690427 C33.5483594,43.1682449 39.1564584,44.5046944 42.3373,44.6074472 C45.8936069,44.7221326 49.4684881,43.9896045 52.6805079,42.4569303 C58.7954188,39.5367618 62.739795,34.1644472 64.6635574,27.8216157 C65.084795,26.4321326 65.2433396,24.9021101 65.3123297,23.4576045 C65.4523,20.5122449 64.995904,17.5463348 63.9849337,14.7766494 C61.9550327,9.21473933 57.6385079,4.34027865 52.2393693,1.99022247" id="Fill-20" fill="#026086"></path>
                <path d="M48.0558495,40.9231955 L55.2825624,37.7226112 C58.751305,41.6994764 62.6810871,45.3926112 65.8698891,49.6021618 C68.0490475,52.4779146 66.2891366,57.0779258 62.9550574,58.2559371 C57.130701,60.3109933 54.1787208,52.0901056 52.0479881,48.2027348 C50.7172752,45.7764427 49.3865624,43.3501506 48.0558495,40.9231955" id="Fill-22" fill="#026086"></path>
            </g>
        </g>
        <g id="icons/small/learning-numbers" transform="translate(253.610789, 28.610789) rotate(4.000000) translate(-253.610789, -28.610789) translate(237.110789, 12.110789)" fill="#DCDD46">
            <g id="Group-7" transform="translate(2.444444, 3.666667)">
                <polygon id="Fill-1" points="10.0651003 0 6.50992528 3.98470166 2.57466498 0.595089471 0 2.92967124 4.19856579 6.5775915 0.972798109 10.1939044 3.29737796 12.2222222 6.36890812 8.46095159 9.62221822 11.2859917 11.6306111 8.39337733 8.57340304 5.76125082 12.2222222 1.29372015"></polygon>
                <polygon id="Fill-2" points="15.8888889 6.21127248 15.9132892 9.77777778 28.1111111 9.12355924 28.0901966 6.11111111"></polygon>
                <polygon id="Fill-3" points="22.7805459 13.4444444 24.4444444 11.234601 22.4426586 9.77777778 20.7777778 11.9876212"></polygon>
                <polygon id="Fill-4" points="19.5555556 2.2098434 21.5577873 3.66666667 23.2222222 1.45780761 21.2199905 0"></polygon>
                <polygon id="Fill-5" points="4.91813557 13.6536276 5.18677171 17.5966762 1.22222222 17.7083128 1.46377811 20.2759549 5.35791892 20.0786941 5.64280322 24.2493513 8.11143936 24.4444444 8.04861316 19.9421289 12.2222222 19.7307781 12.0034138 17.4026669 8.01503365 17.5153874 7.9576235 13.4444444"></polygon>
                <polygon id="Fill-6" points="15.8888889 17.4202538 16.4538576 20.6616862 26.8888889 20.7777778 26.8061821 17.1111111"></polygon>
            </g>
        </g>
        <g id="icons/small/learning-expression" transform="translate(210.786033, 31.745430) rotate(4.000000) translate(-210.786033, -31.745430) translate(192.286033, 13.245430)">
            <g id="Group-3" transform="translate(9.592593, 2.740741)">
                <mask id="mask-8" fill="white">
                    <use xlink:href="#path-7"></use>
                </mask>
                <g id="Clip-2"></g>
                <path d="M15.2576753,20.6225919 C14.6434941,20.3282552 15.8379149,17.7310769 15.9704487,17.2323821 C16.9903128,13.4197306 14.612785,10.1652512 11.936248,7.75108024 C11.9168528,7.73277951 11.8909926,7.72057903 11.8408883,7.68550263 C11.6372388,9.3325681 11.438438,10.9338818 11.2283234,12.576372 C11.0812432,13.732368 10.9276979,14.8883639 10.7773851,16.0458849 C10.6270723,17.1942556 10.473527,18.3441513 10.3264468,19.494047 C10.1389599,20.9687806 10.3959463,22.4770656 9.49568592,23.7276153 C7.83416417,26.0304568 3.64480192,26.8860158 1.4014243,25.0147664 C-1.23470603,22.8171541 0.0615395398,17.8820579 3.51065182,17.4901174 C4.88771071,17.3330361 6.15324722,17.7021008 7.38160961,18.2709484 C7.68708394,18.412779 7.9860932,18.5759605 8.32066033,18.7452422 C9.14010734,12.5839973 9.58134804,6.20924395 10.8177918,0.124252082 C10.9697208,-0.629127864 17.0355682,1.87349661 18.9993318,12.3262621 C19.4906767,14.9356408 19.0381222,16.8236659 17.2780082,18.8824977 C16.6379667,19.6313025 15.8928679,20.2428518 14.9974564,20.6576683 C14.9651311,20.6729189 14.9328058,20.6866444 14.8665388,20.7171456 C14.9020967,20.5951408 14.9295732,20.5036371 14.958666,20.4121335 C14.9974564,20.2901287 15.0378631,20.1696489 15.0782697,20.047644" id="Fill-1" fill="#98C45B" mask="url(#mask-8)"></path>
            </g>
        </g>
        <g id="icons/small/learning-communication" transform="translate(28.579328, 50.584806) rotate(-6.000000) translate(-28.579328, -50.584806) translate(11.579328, 33.584806)">
            <g id="Group-7" transform="translate(2.518519, 2.518519)">
                <g id="Group-3">
                    <mask id="mask-10" fill="white">
                        <use xlink:href="#path-9"></use>
                    </mask>
                    <g id="Clip-2"></g>
                    <path d="M13.6804831,12.0937943 C15.4795813,10.6506259 18.4875684,10.4352926 20.1191304,10.4352926 C21.3838647,10.4352926 22.7679549,10.5603599 24.0994847,10.8224576 C24.4619324,7.88826902 23.6702415,4.83880101 21.6061514,3.18247441 C17.4560709,-0.147579461 3.63268921,0.3113633 1.20505636,4.73330943 C-0.112238325,7.1356899 -0.472495974,14.6516933 0.745152979,15.9937202 C1.7952657,17.1530401 2.96144928,18.0132859 4.19442834,18.6353599 L3.81117552,23.8827505 L8.93033816,19.9338852 C9.85780998,20.0121882 10.7896618,20.0024003 11.7127536,19.9273599 C11.5988728,19.516269 11.5090821,19.0899525 11.4521417,18.6473229 C11.1083092,15.9839323 11.9635105,13.4727976 13.6804831,12.0937943" id="Fill-1" fill="#056086" mask="url(#mask-10)"></path>
                </g>
                <g id="Group-6" transform="translate(11.333333, 11.333333)">
                    <mask id="mask-12" fill="white">
                        <use xlink:href="#path-11"></use>
                    </mask>
                    <g id="Clip-5"></g>
                    <path d="M16.5476667,3.4591684 C15.1654444,1.96946469 11.5198889,1.08873877 8.19211111,1.08873877 C5.91655556,1.08873877 3.78877778,1.5012721 2.63877778,2.41364741 C-0.190111111,4.65857086 0.486555556,10.7057857 4.01988889,12.2762499 C5.77988889,13.0587536 8.06766667,13.7452178 10.3721111,13.7452178 C10.6754444,13.7452178 10.9776667,13.7332128 11.281,13.7081116 L14.771,16.3710252 L14.5098889,12.8328425 C15.351,12.413761 16.1454444,11.8331585 16.8621111,11.0517462 C17.691,10.145919 19.1054444,6.21484741 16.5476667,3.4591684" id="Fill-4" fill="#056086" mask="url(#mask-12)"></path>
                </g>
            </g>
        </g>
        <g id="icons/small/learning-physical" transform="translate(286.134331, 56.134331) rotate(-6.000000) translate(-286.134331, -56.134331) translate(269.634331, 39.634331)">
            <g id="Group-19" transform="translate(3.666667, 3.666667)">
                <path d="M14.0828111,5.52811111 C14.9212556,5.83977778 15.7425889,6.18811111 16.5309222,6.57677778 C17.4830333,4.61511111 17.9719222,3.52244444 18.2848111,1.386 C16.8584778,0.645333333 15.2708111,0.168666667 13.5829222,0.0183333333 C14.5057,1.14522222 15.3074778,2.95655556 14.0828111,5.52811111" id="Fill-1" fill="#E8495C"></path>
                <path d="M13.3296778,6.73786667 C12.4680111,7.66431111 10.9267889,8.22897778 9.17901111,8.86697778 C7.49234444,9.48297778 5.57834444,10.1820889 4.24978889,11.2820889 C3.17423333,12.1730889 1.38612222,14.4806444 0.523233333,15.6258667 C1.44112222,18.6203111 3.50667778,21.1283111 6.22123333,22.6634222 C7.58523333,21.8983111 10.5026778,18.8794222 15.9195667,7.83297778 C15.0933444,7.42353333 14.2206778,7.05931111 13.3296778,6.73786667" id="Fill-3" fill="#E8495C"></path>
                <g id="Group-7" transform="translate(0.000000, 3.519633)">
                    <mask id="mask-14" fill="white">
                        <use xlink:href="#path-13"></use>
                    </mask>
                    <g id="Clip-6"></g>
                    <path d="M3.33104444,6.7023 C4.84904444,5.44585556 6.88526667,4.70152222 8.68193333,4.04641111 C9.87726667,3.61007778 11.0261556,3.18963333 11.7680444,2.70196667 C8.16982222,1.60563333 4.55937778,1.12285556 2.79204444,0.937077778 C1.04793333,3.03074444 -0.000733333333,5.7013 -0.000733333333,8.61141111 C-0.000733333333,9.1883 0.0444888889,9.75541111 0.122711111,10.3103 C1.08826667,9.06974444 2.40826667,7.46618889 3.33104444,6.7023" id="Fill-5" fill="#E8495C" mask="url(#mask-14)"></path>
                </g>
                <path d="M22.5214,6.69313333 C22.8905111,6.63935556 23.2510667,6.66013333 23.5981778,6.72491111 C22.6692889,4.90135556 21.2869556,3.33813333 19.5954,2.1758 C19.2434,4.1668 18.7007333,5.34991111 17.7767333,7.25291111 C18.5186222,7.70268889 19.2006222,8.21724444 19.8300667,8.76846667 C20.5462889,7.54746667 21.4482889,6.84835556 22.5214,6.69313333" id="Fill-8" fill="#E8495C"></path>
                <g id="Group-12" transform="translate(20.777778, 7.186300)">
                    <mask id="mask-16" fill="white">
                        <use xlink:href="#path-15"></use>
                    </mask>
                    <g id="Clip-11"></g>
                    <path d="M3.54236667,1.28761111 C3.04858889,1.00527778 2.48392222,0.803611111 1.94858889,0.880611111 C1.25314444,0.983277778 0.637144444,1.56383333 0.111588889,2.59416667 C1.80314444,4.35783333 3.00703333,6.32561111 3.76847778,7.80205556 C3.99336667,6.88538889 4.11681111,5.92961111 4.11681111,4.94572222 C4.11681111,3.67094444 3.91514444,2.44261111 3.54236667,1.28761111" id="Fill-10" fill="#E8495C" mask="url(#mask-16)"></path>
                </g>
                <path d="M11.5644222,0.000122222222 C8.65675556,0.199344444 6.02408889,1.37267778 4.00742222,3.19134444 C6.12431111,3.45412222 9.44875556,3.99678889 12.7365333,5.06134444 C14.1408667,2.24045556 12.4823111,0.756677778 11.5644222,0.000122222222" id="Fill-13" fill="#E8495C"></path>
                <path d="M20.4481444,15.4932556 C20.6779222,16.5138111 20.9162556,17.5698111 20.8050333,18.7700333 C20.7060333,19.8394778 20.5178111,20.7720333 20.2782556,21.5860333 C21.8414778,20.3479222 23.0905889,18.7480333 23.8923667,16.9171444 C23.3631444,15.7181444 22.1849222,13.3690333 20.3149222,11.2460333 C19.8602556,12.8813667 20.1462556,14.1573667 20.4481444,15.4932556" id="Fill-15" fill="#E8495C"></path>
                <path d="M19.2033111,10.0983667 C18.5824222,9.51781111 17.9016444,8.98003333 17.1597556,8.51681111 C14.2924222,14.3541444 11.7929778,18.6258111 9.7262,21.2083667 C8.98308889,22.1372556 8.29253333,22.8522556 7.64842222,23.3594778 C9.12486667,23.9632556 10.7455333,24.2969222 12.4468667,24.2969222 C14.5442,24.2969222 16.5205333,23.7884778 18.2536444,22.8925889 C18.7547556,21.8854778 19.2192,20.4945889 19.3890889,18.6453667 C19.4807556,17.6590333 19.2766444,16.7521444 19.0603111,15.7927 C18.7058667,14.2184778 18.3098667,12.4499222 19.2033111,10.0983667" id="Fill-17" fill="#E8495C"></path>
            </g>
        </g>
        <g id="icons/small/learning-social" transform="translate(82.543468, 51.543468) rotate(4.000000) translate(-82.543468, -51.543468) translate(67.043468, 36.043468)">
            <g id="Group-3" transform="translate(3.444444, 3.444444)">
                <mask id="mask-18" fill="white">
                    <use xlink:href="#path-17"></use>
                </mask>
                <g id="Clip-2"></g>
                <path d="M18.2242111,0.178651852 C13.7303593,-0.938496296 11.7681741,3.54731852 11.7681741,3.54731852 C11.7681741,3.54731852 9.21813704,0.0982814815 5.94935926,0.805540741 C2.67943333,1.5128 -0.274751852,3.66672593 0.0214703704,9.10894815 C0.438248148,16.8015407 12.1746185,21.0014667 12.1746185,21.0014667 C12.1746185,21.0014667 18.5078037,17.6029481 22.2404333,12.4179111 C25.3553593,8.09054074 24.5309889,1.74587407 18.2242111,0.178651852" id="Fill-1" fill="#ED7139" mask="url(#mask-18)"></path>
            </g>
        </g>
        <g id="icons/small/learning-world" transform="translate(54.134331, 27.716217) rotate(-6.000000) translate(-54.134331, -27.716217) translate(37.634331, 11.216217)">
            <g id="Group-6" transform="translate(2.444444, 1.222222)">
                <g id="Group-3" transform="translate(0.000000, 0.727222)">
                    <mask id="mask-20" fill="white">
                        <use xlink:href="#path-19"></use>
                    </mask>
                    <g id="Clip-2"></g>
                    <path d="M25.7162889,16.3307222 C24.9524,20.3420556 22.7462889,23.2863889 19.1187333,25.1649444 C18.9292889,25.2627222 18.7777333,25.2725 18.5724,25.1747222 C17.4186222,24.6235 16.2074,24.5672778 14.9668444,24.8092778 C13.7165111,25.0537222 12.5554,25.5646111 11.3832889,26.0388333 C11.2830667,26.0791667 11.1547333,26.0962778 11.0532889,26.0718333 C8.36195556,25.4155 6.13628889,24.0172778 4.38117778,21.8710556 C4.20395556,21.6547222 4.18806667,21.4249444 4.27728889,21.1915 C4.41173333,20.8395 4.57184444,20.4985 4.73195556,20.1575 C5.03506667,19.5158333 5.20984444,18.8533889 5.02651111,18.1493889 C4.9764,17.9538333 4.83217778,17.7815 4.71973333,17.6042778 C4.68306667,17.5480556 4.6134,17.5065 4.55351111,17.4710556 C3.29095556,16.7401667 2.72995556,15.4849444 2.15428889,14.2468333 C1.79617778,13.4792778 1.7754,12.6775 1.96728889,11.8525 C2.20684444,10.8233889 2.53562222,9.83216667 3.0074,8.88616667 C3.07951111,8.74316667 3.16506667,8.67594444 3.3264,8.65027778 C3.49628889,8.62216667 3.67228889,8.55861111 3.82017778,8.46816667 C4.29684444,8.17727778 4.78328889,8.01716667 5.35528889,8.15405556 C5.56062222,8.20294444 5.79773333,8.14672222 6.01528889,8.10638889 C6.43328889,8.02938889 6.33673333,5.63138889 6.88917778,4.9885 C7.35484444,4.44583333 8.00506667,4.10361111 8.64673333,3.7895 C10.5521778,2.85572222 12.4111778,2.13705556 14.5415111,2.25316667 C15.1281778,2.28494444 18.9818444,3.54383333 19.1114,3.44972222 C18.7141778,3.73938889 18.3524,4.01316667 17.9784,4.27105556 C17.6899556,4.47027778 17.5982889,4.43972222 17.4296222,4.1415 C17.1362889,3.62083333 16.8454,3.54505556 16.4029556,3.9325 C15.5852889,4.65116667 15.5584,4.64261111 14.5378444,4.69638889 C13.7409556,4.73916667 12.8817333,4.7575 12.2082889,5.24272222 C11.5091778,5.74627778 11.2268444,6.5725 10.3957333,6.97216667 C10.1965111,7.0675 9.97895556,7.14694444 9.82373333,7.30461111 C9.5854,7.54783333 9.54506667,7.92427778 9.58173333,8.26283333 C9.62573333,8.66861111 9.80295556,9.10861111 10.1818444,9.26383333 C11.1498444,9.65983333 12.0139556,7.87783333 12.9868444,8.26283333 C13.1506222,8.32761111 13.2826222,8.44738889 13.4256222,8.54883333 C14.5488444,9.34083333 16.5178444,9.14038889 17.8378444,9.74783333 C18.1544,9.89327778 18.4147333,10.1682778 18.6860667,10.4017222 C19.2702889,10.9065 19.8300667,11.4406111 20.4277333,11.9270556 C20.7980667,12.2301667 21.2356222,12.4403889 21.7330667,12.4391667 C21.9347333,12.4379444 22.1449556,12.4025 22.3344,12.3352778 C22.7426222,12.1947222 22.8575111,11.8488333 22.6497333,11.4736111 C22.5825111,11.3513889 22.4089556,11.2206111 22.5886222,11.0812778 C22.7426222,10.9627222 22.9296222,10.9431667 23.1154,11.0617222 C23.7301778,11.4516111 24.3474,11.8378333 24.9695111,12.2155 C25.1357333,12.3181667 25.3202889,12.3988333 25.5024,12.4685 C25.5671778,12.4929444 25.6539556,12.4575 25.7444,12.4477222 C25.9424,13.7445 25.9607333,15.0437222 25.7162889,16.3307222 M27.2049556,11.0018333 C25.7578444,5.13516667 20.6624,0.8855 14.6490667,0.520055556 C7.46117778,0.0849444444 1.11173333,5.2855 0.130288889,12.4171667 C-0.00904444444,13.4328333 -0.0420444444,14.4546111 0.0594,15.4776111 C0.0679555556,15.5558333 0.0508444444,15.6365 0.0459555556,15.7159444 L0.329511111,17.4185 C0.445622222,17.8022778 0.555622222,18.1897222 0.683955556,18.5710556 C1.88906667,22.1741667 4.18684444,24.8520556 7.55162222,26.6022778 C9.77484444,27.7597222 12.1569556,28.2217222 14.6564,28.0897222 C14.8605111,28.0787222 15.0658444,28.0689444 15.2711778,28.0591667 C15.8199556,27.9675 16.3711778,27.8770556 16.9211778,27.7853889 C17.4064,27.6326111 17.9001778,27.4993889 18.3792889,27.3246111 C22.2855111,25.9043889 25.0391778,23.2619444 26.6170667,19.4266111 C27.7402889,16.6949444 27.9114,13.8703889 27.2049556,11.0018333" id="Fill-1" fill="#90BDE5" mask="url(#mask-20)"></path>
                </g>
                <path d="M21.9564889,14.7352333 C21.7034889,14.6301222 21.4517111,14.5091222 21.1877111,14.4516778 C20.4947111,14.2964556 20.0302667,13.8650111 19.6391556,13.3027889 C19.4032667,12.9642333 19.1160444,12.6599 18.8288222,12.3616778 C18.6601556,12.1869 18.4487111,12.0903444 18.1737111,12.1111222 C17.8180444,12.1380111 17.4550444,12.1294556 17.1006,12.0903444 C16.5396,12.0267889 15.9810444,11.9424556 15.4286,11.8324556 C15.1890444,11.7835667 14.9556,11.6552333 15.0069333,11.3227889 C14.0939333,11.0807889 13.4718222,11.0245667 12.9377111,11.1541222 C11.2767111,11.5574556 10.3380444,12.7136778 9.80148889,14.2463444 C9.60226667,14.8134556 9.79904444,15.3206778 10.3270444,15.6030111 C10.7694889,15.8389 11.2596,16.0173444 11.7497111,16.1200111 C12.4402667,16.2654556 13.1479333,16.3253444 13.8507111,16.4060111 C14.1794889,16.4426778 14.4190444,16.5893444 14.5803778,16.8729 C14.6537111,17.0024556 14.7502667,17.1271222 14.7979333,17.2676778 C15.1511556,18.3016778 15.4946,19.3393444 15.8404889,20.3745667 C16.0323778,20.9539 16.1717111,21.5601222 16.4320444,22.1064556 C16.7290444,22.7249 17.2387111,22.8116778 17.7520444,22.3594556 C18.1089333,22.0453444 18.4499333,21.6811222 18.6894889,21.2741222 C19.2456,20.3330111 19.7784889,19.3723444 20.2417111,18.3823444 C20.6071556,17.5989 20.9897111,16.8606778 21.7438222,16.3840111 C21.7914889,16.3534556 21.8293778,16.3094556 21.8709333,16.2691222 C22.1642667,15.9819 22.3243778,15.2766778 22.1630444,14.9075667 C22.1312667,14.8330111 22.0359333,14.7694556 21.9564889,14.7352333" id="Fill-4" fill="#90BDE5"></path>
            </g>
        </g>
        <g id="icons/small/learning-words" transform="translate(230.738129, 55.738129) rotate(-6.000000) translate(-230.738129, -55.738129) translate(218.238129, 43.238129)">
            <g id="Group-6" transform="translate(1.851852, 1.851852)">
                <path d="M14.9097222,16.1267593 L13.4402778,15.230463 L14.2125,12.9786111 L18.874537,12.7360185 L18.8736111,12.8249074 L18.8393519,15.779537 L18.8393519,15.7989815 L14.9097222,16.1267593 Z M18.8087963,18.4286111 L20.9856481,18.480463 L20.2171296,7.39805556 C20.2171296,7.39805556 17.8328704,6.42398148 16.3402778,6.50361111 C14.8486111,6.58231481 13.3291667,8.99712963 13.3291667,8.99712963 L14.274537,10.2952778 C14.274537,10.2952778 16.2939815,8.45083333 16.7523148,8.46194444 C17.2106481,8.47305556 18.9162037,9.08694444 18.9162037,9.08694444 L18.8893519,11.429537 L18.8893519,11.4499074 L13.349537,11.7906481 L11.7162037,15.4184259 L14.4087963,17.8758333 L18.8199074,17.5110185 L18.8180556,17.654537 L18.8087963,18.4286111 Z" id="Fill-1" fill="#7E8080"></path>
                <g id="Group-5" transform="translate(0.000000, 0.370278)">
                    <mask id="mask-22" fill="white">
                        <use xlink:href="#path-21"></use>
                    </mask>
                    <g id="Clip-4"></g>
                    <path d="M5.8837963,10.0060185 L8.26712963,3.67916667 L8.84583333,9.8337963 L5.8837963,10.0060185 Z M9.99305556,15.4643519 L11.8560185,11.949537 L9.48842593,0.555092593 L6.50231481,0.770833333 L0.000462962963,17.4143519 L2.85138889,18.0550926 L5.10509259,12.0726852 L9.01064815,11.5847222 L9.6625,18.5180556 L13.2087963,18.4587963 L13.0643519,17.7662037 L9.99305556,15.4643519 Z" id="Fill-3" fill="#7E8080" mask="url(#mask-22)"></path>
                </g>
            </g>
        </g>
    </g>
</svg>