<svg id="Layer_1" data-name="Layer 1" xmlns="http://www.w3.org/2000/svg" viewBox="0 0 184.88 58.47"><defs><style>.cls-1{fill:#8cc048;}.cls-2{fill:#d6db30;}.cls-3{fill:#ea5c28;}</style></defs><title>mcmArtboard 1</title><path class="cls-1" d="M26.43,15.63a3.66,3.66,0,0,1,.39,1.85,5.35,5.35,0,0,1-1,3.47,19.84,19.84,0,0,1-5.56,4.65,14.75,14.75,0,0,1-7.67,2.13q-5.58,0-8.66-3.2T.85,15.79A16.88,16.88,0,0,1,2.39,8.6,13.11,13.11,0,0,1,6.67,3.3a10.31,10.31,0,0,1,6.18-2,6.52,6.52,0,0,1,4.94,1.93,7.25,7.25,0,0,1,1.86,5.24A9.28,9.28,0,0,1,17,15.15q-2.62,2.78-8.89,4.4,1.32,2.58,5,2.58a11.17,11.17,0,0,0,5.45-1.77,18.32,18.32,0,0,0,5.28-4.62A1.87,1.87,0,0,1,25.34,15,1.23,1.23,0,0,1,26.43,15.63ZM8.63,9.24a11.77,11.77,0,0,0-1.35,5.83v.11a11.86,11.86,0,0,0,4.94-2.35A4.72,4.72,0,0,0,14,9.18a2.44,2.44,0,0,0-.56-1.7A1.89,1.89,0,0,0,12,6.83C10.64,6.83,9.53,7.63,8.63,9.24Z"/><path class="cls-1" d="M75.18,17.2c-.23,4.27-4.44,7.88-8.51,9.25-.45.15-.9.27-1.34.37-3.85.55-7.92.69-11.63-.7a4.93,4.93,0,0,1-1.15-.72A1.55,1.55,0,0,1,52,24.25a4.39,4.39,0,0,1,.27-1.14,4,4,0,0,1,.6-1.05,5.22,5.22,0,0,1,2-1.06A4.72,4.72,0,0,1,56,21a19.58,19.58,0,0,1,3.47.71A9.43,9.43,0,0,0,57.8,16.9L57.26,16c-.53-.61-.94-1.43-1.62-2.11-1.08,2-2.44,3.94-3.55,5.92-.2.32-.41.64-.62,1-.41.64-.82,1.29-1.21,1.92a9.66,9.66,0,0,1-.87,1A6.49,6.49,0,0,1,46,25.61a1.48,1.48,0,0,1-1.62-.95,2.85,2.85,0,0,1-.21-1.75,4.91,4.91,0,0,1,.24-.83c.43-.76.9-1.49,1.4-2.21.25-.36.5-.72.76-1.07A50.55,50.55,0,0,0,53.3,7.5a12.34,12.34,0,0,1,.55-1.24c.23-.38.49-.77.76-1.15s.57-.76.88-1.12a10.44,10.44,0,0,1,4.87-3c2.31-.82,5.7-.95,7,1.34a2.53,2.53,0,0,1,.2,1.06,2.73,2.73,0,0,1-.32,1.13,3.71,3.71,0,0,1-.69.73,4,4,0,0,1-.79.48c-1.37.69-3.14.69-4,2.18a2.81,2.81,0,0,0-.38.9,2.88,2.88,0,0,0,0,1,10.44,10.44,0,0,0,1.89,3.56l.65.93c.21.32.43.63.64.94a8.87,8.87,0,0,1,.58,1,8.18,8.18,0,0,1,.41,1A16.09,16.09,0,0,1,66,19.36a6.49,6.49,0,0,1,0,1.08,5.48,5.48,0,0,1-.18,1.1,6.74,6.74,0,0,0,1.09-.6c2.39-1.56,3.72-4.26,6.1-5.92.81-.54,1.76.27,2,1.23A5.36,5.36,0,0,1,75.18,17.2Z"/><path class="cls-1" d="M89.86,1.68a1.26,1.26,0,0,1,.48,1.12c0,.89-.46,4.09-1.38,9.58q-1.23,7.89-1.44,9.35-2,14.4-5.42,22.8t-9.19,8.41a5.82,5.82,0,0,1-4.4-1.77,6.33,6.33,0,0,1-1.7-4.62A14,14,0,0,1,68,41.17a24.37,24.37,0,0,1,4.25-6.3A71.47,71.47,0,0,1,81,26.72l.16-1.29q.38-2.07.85-5.94a4.72,4.72,0,0,1-.71,5.1c-1.27,1.4-3,3.23-6.3,3.14a4.63,4.63,0,0,1-3.91-2.33,10.4,10.4,0,0,1-1.51-5.8,50.8,50.8,0,0,1,.53-7.7,50.53,50.53,0,0,1,1.75-7.42,4.72,4.72,0,0,1,1.49-2.41,5,5,0,0,1,3-.73A2.52,2.52,0,0,1,78,1.73a1.49,1.49,0,0,1,.45,1.18,25.71,25.71,0,0,1-.58,3c-.36,1.39-.64,2.64-.86,3.76-.28,1.53-.53,3-.74,4.4a24.16,24.16,0,0,0-.32,3.44c0,1.42.37,2.13,1.12,2.13.53,0,1.19-.56,2-1.68a24.82,24.82,0,0,0,2.55-5.1,71.61,71.61,0,0,0,2.63-8.4,4.45,4.45,0,0,1,1.3-2.41,4,4,0,0,1,2.63-.73A3.07,3.07,0,0,1,89.86,1.68ZM76.47,44.25a49.12,49.12,0,0,0,3.3-10.81,31.51,31.51,0,0,0-5.93,6.64A10.45,10.45,0,0,0,72,45.32a3.2,3.2,0,0,0,.35,1.57,1.2,1.2,0,0,0,1.14.61C74.38,47.5,75.38,46.42,76.47,44.25Z"/><path class="cls-1" d="M80.15,33.08S93,23.38,94.9,22.94s.75-4.32,0-4.59-13.15,8.06-13.15,8.06"/><path class="cls-2" d="M123.19.93a3.88,3.88,0,0,1,3.72.24,2.07,2.07,0,0,1,.66.94,2.75,2.75,0,0,1-1.07,3.26c-.36.18-.73.33-1.09.47-1.62,1-5.41.75-5.41,2.91a2.11,2.11,0,0,0,1,.42c1.06.2,2.25-.08,3.06.94a2,2,0,0,1-.79,2.77,5.18,5.18,0,0,1-.94.48,11.11,11.11,0,0,0-3,1.35,1.63,1.63,0,0,0,.08,1l0,1.18a4.33,4.33,0,0,0,.43,2.39c.26.26.72.06,1.38-.61.25-.24.56-.51.94-.81s.82-.62,1.34-1c.93-.41,1.61-1.22,2.55-1.35a.57.57,0,0,1,.31.63,1.34,1.34,0,0,0,.46,1.13,1.17,1.17,0,0,1,.38.87,18.41,18.41,0,0,1,0,2.27l-.09,2.73-1.5,1.36a11.55,11.55,0,0,1-3,2.12,7.85,7.85,0,0,1-3.2.48,13.29,13.29,0,0,1-2.16-.21,7.29,7.29,0,0,1-1.8-.66,5.6,5.6,0,0,1-2.18-1.64,8.65,8.65,0,0,1-1.07-2.5,12,12,0,0,1-.52-2.91,39.41,39.41,0,0,1,.54-5.32c.13-.91.26-1.75.39-2.53.06-.39.13-.76.19-1.12a41.14,41.14,0,0,1,.85-4,10.48,10.48,0,0,1,.46-1.26c.84-1.88,2.73-4.31,5-3.37,1.08.41,2.16-.27,3.23-.3A2.07,2.07,0,0,0,123.19.93Z"/><path class="cls-2" d="M137.57,1.51c.42-.61.76-.94,1-1a3.66,3.66,0,0,1,1.6.53,5.14,5.14,0,0,1,2.09,2,23.39,23.39,0,0,1,1.89,3.46,19.36,19.36,0,0,1,.93,3.22,35.27,35.27,0,0,0,1,3.74,8.34,8.34,0,0,1,.49,2.45,20.89,20.89,0,0,0,1,4.42c.58,1.87.91,3,1,3.48a1.7,1.7,0,0,1-.15,1.16,2.73,2.73,0,0,0-.44,1.45,1.12,1.12,0,0,1-.41,1,2,2,0,0,1-1.36.08,4.7,4.7,0,0,1-2.21-1.09,5.31,5.31,0,0,1-1.35-1.69c-.26-.57-.48-1.1-.65-1.59s-.28-.75-.33-.75a14.08,14.08,0,0,0-2.81-.22,13.32,13.32,0,0,0-2.33,0c-.23.06-.4.26-.51.61a10.35,10.35,0,0,1-.85,2.17,3.42,3.42,0,0,1-1,1.34,2.41,2.41,0,0,1-1.29.3c-.54,0-.86-.08-1-.26a3.27,3.27,0,0,0-1-.7,4,4,0,0,1-1.34-1.05,1.63,1.63,0,0,1-.4-.83,8.57,8.57,0,0,1,.2-1.71,7.53,7.53,0,0,0,.22-1.86,6.64,6.64,0,0,0-.58-1.6c-.26-.55-.5-1-.73-1.4s-.37-.63-.45-.74l-.2-.31a.7.7,0,0,1-.08-.35c0-.26.27-.53.79-.81a4.09,4.09,0,0,1,1.74-.46h.16a1.73,1.73,0,0,0,1.18-.46,16.18,16.18,0,0,0,1.27-2.6,3.87,3.87,0,0,0,.15-.4c.79-1.86,1.66-3.78,2.61-5.73A31.23,31.23,0,0,1,137.57,1.51Zm3,11.21c-.47-1.35-.91-2-1.3-2.06s-.86.66-1.39,2.06-.58,2.63,0,3.33,1.45.59,2.61-.35a1.55,1.55,0,0,0,.67-1A5.49,5.49,0,0,0,140.55,12.72Z"/><path class="cls-2" d="M159.4.83a5.5,5.5,0,0,1,2.29,0,6,6,0,0,1,1.17.33,4.51,4.51,0,0,1,2.82,4.32,5.67,5.67,0,0,1-.12,1.08,8.42,8.42,0,0,1-.24.86,4.1,4.1,0,0,1-.34.8c-.64,1.11-2.4,1.79-3.25.56a5.77,5.77,0,0,1-.6-1.1c-.17-.4-.31-.82-.44-1.19a4.64,4.64,0,0,0-.94,1.32,3.23,3.23,0,0,0,.76,3.4,7.65,7.65,0,0,0,.88.83c1.25,1,2.73,1.86,3.36,3.39a8.86,8.86,0,0,1,.49,5.84,7.56,7.56,0,0,1-.4,1.16c-2.26,5.73-10.25,6.14-14.51,2.35a3.84,3.84,0,0,1-.79-1,1.57,1.57,0,0,1,.13-1.82,3.56,3.56,0,0,1,.93-.86c2.5-2.19,4.4,1.2,6.7,1.74,1.08.27,1.62-1.08,2-1.9a3.35,3.35,0,0,0-.68-3.52,5.2,5.2,0,0,0-1.42-.75,5.21,5.21,0,0,1-1.47-.83,6.79,6.79,0,0,1-3.07-6.55A10,10,0,0,1,155.54,3a7.51,7.51,0,0,1,.81-.66,8.81,8.81,0,0,1,1.84-1.06A5.37,5.37,0,0,1,159.4.83Z"/><path class="cls-2" d="M167.12,1c.23-.29.8-.36,1.7-.22a7.63,7.63,0,0,1,1.29.34,5.87,5.87,0,0,1,1.18.58c2.32,1.32,1.64,5.66,3.4,6.06,2,.41,1.9-4.19,4.49-5.32a4.42,4.42,0,0,1,1.1-.35,5.07,5.07,0,0,1,2.54.26,1.71,1.71,0,0,1,1.35,1.76c-.3,2.33-1.52,4.29-2.65,6.31-.19.33-.37.67-.55,1s-.35.69-.51,1l-.28.57-1.5,3.08a4.44,4.44,0,0,0-.57,1.39,28.87,28.87,0,0,1-2.26,5.3,13.44,13.44,0,0,1-3.6,4.34q-2.56,2.18-3.82,2a.69.69,0,0,1-.55-.3,2.93,2.93,0,0,1-.19-1.09,5.78,5.78,0,0,1,0-1,3.47,3.47,0,0,1,.13-.72l.3-.84c.15-.39.26-.75.35-1.07A69,69,0,0,1,171,17.64a3.89,3.89,0,0,0,.35-1.46,1.81,1.81,0,0,0-.2-1l-.54-.89a5.11,5.11,0,0,1-.52-1.12c-.58-1.48-1.52-2.7-2-4.18-.1-.28-.2-.55-.29-.82C166.58,4.44,166.34,2.06,167.12,1Z"/><path class="cls-3" d="M80.44,52.7A5.39,5.39,0,0,1,77,57.55a6.33,6.33,0,0,1-7.32-2.84,10.88,10.88,0,0,0,10.58-2A.44.44,0,0,0,80.44,52.7Z"/><path class="cls-1" d="M24.82,24.7a10.44,10.44,0,0,1-2-6.61,19,19,0,0,1,2-8.49,17.5,17.5,0,0,1,5.24-6.44A11.4,11.4,0,0,1,37,.72a2,2,0,0,1,1.56.48,4.14,4.14,0,0,1,.67,1.71,11.75,11.75,0,0,1,2.34-.23c1.73,0,2.6.66,2.6,2a44.77,44.77,0,0,1-.8,5.6,57.58,57.58,0,0,0-1.22,9,2.11,2.11,0,0,0,.4,1.35,1.26,1.26,0,0,0,1,.5A4,4,0,0,0,46,19.69a48.21,48.21,0,0,0,3.88-4.46,1.82,1.82,0,0,1,1.43-.78,1.22,1.22,0,0,1,1.09.67,3.71,3.71,0,0,1,.4,1.85,4.69,4.69,0,0,1-1.17,3.22c-1.45,1.9-.57,2.61-4.28,5.23a8.73,8.73,0,0,1-4.91,1.8A4.79,4.79,0,0,1,39.25,26,7.72,7.72,0,0,1,37,22.52q-2.76,4.69-7,4.7A6.34,6.34,0,0,1,24.82,24.7Zm9.41-4.59a9.85,9.85,0,0,0,1.54-3.87l2-10.31A6.28,6.28,0,0,0,33.61,7.7a12,12,0,0,0-3,4.51,16,16,0,0,0-1.11,5.94,4.12,4.12,0,0,0,.66,2.57,2.21,2.21,0,0,0,1.83.84A2.9,2.9,0,0,0,34.23,20.11Z"/><path class="cls-1" d="M35.62.83s7.17-1.32,8.47,3.23c.9,5.15-7.48.37-7.54-.38C36.42,3.57,35.62.83,35.62.83Z"/><path class="cls-2" d="M93.31,27.31q-.82-.69-1-3.39a31.52,31.52,0,0,1,1.28-8.57c1-4,1.53-6.3,1.65-7a2.66,2.66,0,0,0,0-1.18c-.07-.17-.3-.32-.67-.44a1.85,1.85,0,0,1-1-1.35,1.88,1.88,0,0,1,.24-1.72q1.44-1.72,6-2.7a11.43,11.43,0,0,1,5.23.21,9.25,9.25,0,0,1,4.3,2.21,8.22,8.22,0,0,1,1.69,2.28,6.27,6.27,0,0,1,.49,2.65,6,6,0,0,1-.74,3.11,9.27,9.27,0,0,1-2.61,2.6,15.76,15.76,0,0,1-3.13,1.82,7.48,7.48,0,0,1-2.81.55q-.71,0-1.05,0a1.69,1.69,0,0,0-.77.28,1.71,1.71,0,0,0-.6.55,7,7,0,0,0-.51,1.19,17.22,17.22,0,0,0-.56,1.77c-.16.58-.37,1.47-.65,2.65s-.59,2-.7,2.37C96.33,28.83,93.31,27.31,93.31,27.31ZM104.39,6.83c-1.91-.89-3-1.11-3.3-.67a10.21,10.21,0,0,0-.24,2.45l-.1,2.25,1.1.14a5.61,5.61,0,0,0,3.21-.48,2.08,2.08,0,0,0,1.29-1.91,1.07,1.07,0,0,0-.35-.82A8.48,8.48,0,0,0,104.39,6.83Z"/></svg>