<?xml version="1.0" encoding="UTF-8"?>
<svg width="60px" height="60px" viewBox="0 0 60 60" version="1.1" xmlns="http://www.w3.org/2000/svg" xmlns:xlink="http://www.w3.org/1999/xlink">
    <!-- Generator: Sketch 52.6 (67491) - http://www.bohemiancoding.com/sketch -->
    <title>illustrations/pea-reaction/happy</title>
    <desc>Created with Sketch.</desc>
    <g id="Symbols" stroke="none" stroke-width="1" fill="none" fill-rule="evenodd">
        <g id="Button/Feedback/Happy" transform="translate(-15.000000, -16.000000)">
            <g id="illustrations/pea-reaction/happy" transform="translate(15.000000, 16.000000)">
                <g id="Group-11">
                    <path d="M0.136326729,32.3308633 C-0.818816178,26.5428379 2.79512409,1.23476027 25.4680661,0.0638424188 C48.141008,-1.10707544 58.5590237,14.0063663 59.8629097,30.7765553 C61.1672175,47.5467442 53.2658874,58.4597505 31.8027931,59.8852533 C3.79960551,61.7451497 1.48364752,40.4961676 0.136326729,32.3308633" id="Fill-63" fill="#CDD85B"></path>
                    <path d="M43.8181068,22.9011324 C42.5124863,22.0135451 42.9177068,19.4601735 45.1456091,18.8681805 C47.3735114,18.2757854 48.2739113,21.7167443 47.30665,22.5033871 C46.3389835,23.2904321 45.8823,24.3038982 43.8181068,22.9011324" id="Fill-65" fill="#28351B"></path>
                    <path d="M15.3565683,22.9011324 C14.0509479,22.0135451 14.4561684,19.4601735 16.6840706,18.8681805 C18.9119729,18.2757854 19.8123729,21.7167443 18.8451116,22.5033871 C17.877445,23.2904321 17.4207615,24.3038982 15.3565683,22.9011324" id="Fill-67" fill="#28351B"></path>
                    <path d="M22.4701895,32.9438549 C23.8532548,33.4252376 27.6359796,34.4411322 32.2762877,33.6152147 C39.1133506,32.3988782 38.9738018,30.1887843 39.9883257,30.6665446 C40.1912305,30.7893052 37.7278008,33.9826916 34.2684814,34.7623223 C32.5620107,35.1471064 26.6218698,36.0136758 23.459868,34.6987283 C20.0904063,33.2976471 22.0999918,32.8150569 22.4701895,32.9438549" id="Fill-75" fill="#ED7139"></path>
                </g>
            </g>
        </g>
    </g>
</svg>