<?xml version="1.0" encoding="UTF-8"?>
<svg width="60px" height="60px" viewBox="0 0 60 60" version="1.1" xmlns="http://www.w3.org/2000/svg" xmlns:xlink="http://www.w3.org/1999/xlink">
    <!-- Generator: Sketch 52.6 (67491) - http://www.bohemiancoding.com/sketch -->
    <title>illustrations/pea-reaction/neutral</title>
    <desc>Created with Sketch.</desc>
    <g id="Symbols" stroke="none" stroke-width="1" fill="none" fill-rule="evenodd">
        <g id="Button/Feedback/Neutral" transform="translate(-15.000000, -16.000000)">
            <g id="illustrations/pea-reaction/neutral" transform="translate(15.000000, 16.000000)">
                <g id="Group-8">
                    <path d="M0.136326729,32.3308633 C-0.818816178,26.5428379 2.79512409,1.23476027 25.4680661,0.0638424188 C48.141008,-1.10707544 58.5590237,14.0063663 59.8629097,30.7765553 C61.1672175,47.546312 53.2658874,58.4593182 31.8027931,59.8852533 C3.79960551,61.7451497 1.48364752,40.4961676 0.136326729,32.3308633" id="Fill-77" fill="#CDD85B"></path>
                    <path d="M39.9719529,24.9011324 C38.6663325,24.0139473 39.071553,21.4601735 41.2994553,20.8681805 C43.5273576,20.2757854 44.4277575,23.7167443 43.4604962,24.5033871 C42.4928296,25.2904321 42.0361461,26.3038982 39.9719529,24.9011324" id="Fill-79" fill="#28351B"></path>
                    <path d="M16.8950298,24.9011324 C15.5894094,24.0139473 15.9946299,21.4601735 18.2225322,20.8681805 C20.4504345,20.2757854 21.3508344,23.7167443 20.3835731,24.5033871 C19.4159065,25.2904321 18.959223,26.3038982 16.8950298,24.9011324" id="Fill-81" fill="#28351B"></path>
                    <path d="M25.0709774,40.00151 C27.2866138,39.9900062 29.8701152,40.0483771 32.0853294,40.0368734 C33.2940887,40.0304824 34.3833236,39.9614599 35.4315908,40.0355952 C36.5170246,40.1122869 36.2285611,41.4279753 35.5502706,41.4846419 C33.5736829,41.649529 27.4618882,41.6171481 25.0697103,41.5153186 C24.4285864,41.4880504 24.4999632,40.0044924 25.0709774,40.00151" id="Fill-91" fill="#ED7139"></path>
                </g>
            </g>
        </g>
    </g>
</svg>