<?xml version="1.0" encoding="UTF-8"?>
<svg width="60px" height="60px" viewBox="0 0 60 60" version="1.1" xmlns="http://www.w3.org/2000/svg" xmlns:xlink="http://www.w3.org/1999/xlink">
    <!-- Generator: Sketch 52.6 (67491) - http://www.bohemiancoding.com/sketch -->
    <title>illustrations/pea-reaction/sad</title>
    <desc>Created with Sketch.</desc>
    <defs>
        <polygon id="path-1" points="0.175560206 0.080458756 59.8744582 0.080458756 59.8744582 60 0.175560206 60"></polygon>
    </defs>
    <g id="Symbols" stroke="none" stroke-width="1" fill="none" fill-rule="evenodd">
        <g id="Button/Feedback/Sad" transform="translate(-15.000000, -16.000000)">
            <g id="illustrations/pea-reaction/sad" transform="translate(15.000000, 16.000000)">
                <g id="Group-117">
                    <mask id="mask-2" fill="white">
                        <use xlink:href="#path-1"></use>
                    </mask>
                    <g id="Clip-116"></g>
                    <path d="M0.311202797,32.3681007 C-0.639146853,26.5878129 2.95665734,1.31356835 25.5158182,0.144215827 C48.074979,-1.02513669 58.4407133,14.0681007 59.7380559,30.8158705 C61.0358182,47.5632086 53.1741399,58.4616259 31.8187552,59.8856547 C3.9560979,61.7430647 1.65176224,40.5224892 0.311202797,32.3681007" id="Fill-115" fill="#CDD85B" mask="url(#mask-2)"></path>
                </g>
                <path d="M30.802949,32.2718255 C29.3885268,31.3476967 29.8275157,28.687999 32.2410765,28.0709357 C34.6546374,27.4542913 35.6300706,31.0381178 34.5822042,31.8579364 C33.5338988,32.6773362 33.0391583,33.7334234 30.802949,32.2718255" id="Fill-118" fill="#28351B"></path>
                <path d="M10.802949,32.2718255 C9.38852684,31.3476967 9.82751572,28.687999 12.2410765,28.0709357 C14.6546374,27.4542913 15.6300706,31.0381178 14.5822042,31.8579364 C13.5338988,32.6773362 13.0391583,33.7334234 10.802949,32.2718255" id="Fill-120" fill="#28351B"></path>
                <path d="M33.032149,45.9314444 C31.8148039,45.213235 28.4285382,43.5388599 23.8756834,43.4772991 C17.1682956,43.3865364 16.8757491,45.5380077 16.0069019,44.8916192 C15.8382481,44.7361387 18.7844951,42.1186205 22.2099268,42.0065482 C23.8996626,41.9513013 29.6906445,42.2129348 32.4322688,44.0609429 C35.3537373,46.0300996 33.3582664,46.1236246 33.032149,45.9314444" id="Fill-122" fill="#ED7139"></path>
            </g>
        </g>
    </g>
</svg>