<?xml version="1.0" encoding="UTF-8"?>
<svg width="60px" height="60px" viewBox="0 0 60 60" version="1.1" xmlns="http://www.w3.org/2000/svg" xmlns:xlink="http://www.w3.org/1999/xlink">
    <!-- Generator: Sketch 52.6 (67491) - http://www.bohemiancoding.com/sketch -->
    <title>illustrations/pea-reaction/wow</title>
    <desc>Created with Sketch.</desc>
    <g id="Symbols" stroke="none" stroke-width="1" fill="none" fill-rule="evenodd">
        <g id="Button/Feedback/Love" transform="translate(-15.000000, -16.000000)">
            <g id="illustrations/pea-reaction/wow" transform="translate(15.000000, 16.000000)">
                <g id="Group-14">
                    <path d="M0.136326729,32.3308633 C-0.818816178,26.5428379 2.79512409,1.23476027 25.4680661,0.0638424188 C48.141008,-1.10707544 58.5590237,14.0063663 59.8629097,30.7765553 C61.1672175,47.546312 53.2658874,58.4593182 31.8027931,59.8852533 C3.79960551,61.7451497 1.48364752,40.4961676 0.136326729,32.3308633" id="Fill-69" fill="#CDD85B"></path>
                    <path d="M44.5873375,23.3011161 C43.2817171,22.4139345 43.6869376,19.8601707 45.9148399,19.2681801 C48.1427422,18.6757873 49.0431421,22.1167327 48.0758808,22.9037745 C47.1082142,23.6904142 46.6515307,24.7038764 44.5873375,23.3011161" id="Fill-71" fill="#28351B"></path>
                    <path d="M16.1257991,23.3011161 C14.8201786,22.4139345 15.2253991,19.8601707 17.4533014,19.2681801 C19.6812037,18.6757873 20.5816037,22.1167327 19.6143423,22.9037745 C18.6466758,23.6904142 18.1899923,24.7038764 16.1257991,23.3011161" id="Fill-73" fill="#28351B"></path>
                    <path d="M10.7692308,30.4712009 C10.7692308,30.4712009 51.452679,27.4797039 52.0420529,28.0794821 C52.6310105,28.6792603 52.9864663,41.3272298 44.5624985,46.1576407 C40.4077455,48.5406608 30.0554095,52.1784743 21.1344697,46.8452762 C12.213946,41.512078 10.7692308,30.4712009 10.7692308,30.4712009" id="Fill-99" fill="#ED7139"></path>
                </g>
            </g>
        </g>
    </g>
</svg>